<svg xmlns="http://www.w3.org/2000/svg" version="1.1" xmlns:xlink="http://www.w3.org/1999/xlink" xmlns:svgjs="http://svgjs.com/svgjs" width="512" height="512" x="0" y="0" viewBox="0 0 256 256" style="enable-background:new 0 0 512 512" xml:space="preserve"><g><g xmlns="http://www.w3.org/2000/svg" id="Layer_19"><g><g><g><path d="m128.103 2.501h-59.703c-1.115 0-2.054.832-2.188 1.939l-5.101 42.093c-1.184 9.771-2.738 19.494-4.66 29.147l-8.813 44.272c2.61-.029 5.243 1 7.17 3.134 13.334 14.776 34.1 15.939 43.244 15.654 1.428-.045 2.77.409 3.865 1.211l15.85-72.034 12.497-62.782c.272-1.363-.771-2.634-2.161-2.634z" fill="#edf4fc" data-original="#edf4fc"></path></g></g><g><g><path d="m59.101 60.862c-.788 4.954-1.67 9.893-2.649 14.814l-8.814 44.277c2.61-.029 5.243 1 7.17 3.134 13.334 14.776 34.1 15.939 43.244 15.654 1.428-.045 2.77.409 3.865 1.211l14.316-65.061c-28.819 3.159-47.752-6.967-57.132-14.029z" fill="#fc657e" data-original="#fc657e"></path></g></g><g><g><path d="m179.418 232.11c-.685 1.015-1.667 1.846-2.883 2.343-15.66 6.408-40.898-3.83-40.898-3.83l-115.823-43.477c-5.191-1.948-8.874-6.334-10.078-11.451-.003.015-.007.031-.01.045-1.805 8.326 2.307 16.451 9.611 19.193l114.247 42.885s26.002 9.647 41.825 2.325c2.989-1.382 4.663-4.825 4.009-8.033z" fill="#fca265" data-original="#fca265"></path></g></g><g><g><path d="m154.178 242.519 1.878 8.748c.281 1.309 1.442 2.241 2.781 2.232l4.194-.027c1.339-.009 2.488-.955 2.752-2.268l1.771-8.798c-4.36.663-8.984.575-13.376.113z" fill="#dae6f1" data-original="#dae6f1"></path></g></g><g><g><path d="m133.584 237.819-2.39-.897-.732 8.193c-.119 1.333.714 2.567 1.995 2.956l4.015 1.216c1.281.388 2.659-.176 3.3-1.352l3.927-7.203c-5.974-1.38-10.115-2.913-10.115-2.913z" fill="#dae6f1" data-original="#dae6f1"></path></g></g><g><g><path d="m107.467 228.015-1.332 8.579c-.205 1.323.546 2.608 1.799 3.079l3.927 1.474c1.253.47 2.665-.003 3.381-1.134l4.642-7.336z" fill="#dae6f1" data-original="#dae6f1"></path></g></g><g><g><path d="m40.8 202.99-1.332 8.579c-.205 1.323.546 2.608 1.799 3.079l3.927 1.474c1.253.47 2.665-.003 3.381-1.134l4.642-7.336z" fill="#dae6f1" data-original="#dae6f1"></path></g></g><g><g><path d="m20.224 195.267-1.332 8.579c-.205 1.323.546 2.608 1.799 3.079l3.927 1.474c1.253.47 2.665-.003 3.381-1.134l4.642-7.336z" fill="#dae6f1" data-original="#dae6f1"></path></g></g><g><g><path d="m180.095 226.286c-1.892-4.936-6.912-12.587-20.167-20.35-21.035-12.32-46.725-38.894-55.812-63.099-.948-2.526-3.368-4.181-6.064-4.097-9.144.285-29.911-.878-43.245-15.654-4.017-4.451-11.107-4.145-14.648.693-4.164 5.69-9.924 12.597-16.956 18.627-8.045 6.899-11.815 17.76-13.581 26.474-1.571 7.752 2.786 15.486 10.191 18.265l115.824 43.477s25.237 10.239 40.898 3.83c3.205-1.31 4.799-4.933 3.56-8.166z" fill="#818182" data-original="#818182"></path></g></g><g><g><path d="m180.095 226.286c-1.892-4.936-6.912-12.587-20.167-20.35-19.911-11.661-43.982-36.092-54.206-59.198l-35.796-.157c-6.875-.03-13.474-2.71-18.423-7.483l-13.253-12.781c-3.952 5.132-9.029 10.93-15.046 16.09-8.045 6.899-11.815 17.76-13.581 26.474-1.571 7.752 2.786 15.486 10.191 18.265l115.824 43.477s25.237 10.239 40.898 3.83c3.204-1.311 4.798-4.934 3.559-8.167z" fill="#f5c84c" data-original="#f5c84c"></path></g></g><g><g><path d="m105.723 146.739-15.8-.069c3.745 8.303 15.187 31.171 34.968 49.607.296.196.596.389.881.595 10.58 7.639 18.152 4.203 22.151.873-16.778-12.966-33.973-32.412-42.2-51.006z" fill="#818182" data-original="#818182"></path></g></g><g><g><path d="m29.896 136.053c-2.077 2.164-4.307 4.309-6.692 6.354-8.045 6.899-11.815 17.76-13.581 26.474-1.571 7.752 2.786 15.486 10.191 18.265l73.895 27.738c6.388-18.845-47.802-65.553-63.813-78.831z" fill="#fca265" data-original="#fca265"></path></g></g><g><g><path d="m23.16 142.447c-8.014 6.901-11.775 17.737-13.538 26.434-1.571 7.752 2.786 15.486 10.191 18.265l36.602 13.739c-3.478-17.86-22.016-43.911-33.255-58.438z" fill="#fc8c48" data-original="#fc8c48"></path></g></g><g><g><path d="m230.481 129.884c-21.621-21.621-56.676-21.621-78.297 0-16.798 16.798-20.538 41.703-11.234 62.119 6.371 5.574 12.871 10.357 18.979 13.934 10.503 6.152 15.825 12.228 18.528 16.943 18.085 4.306 37.915-.589 52.025-14.699 21.62-21.621 21.62-56.676-.001-78.297z" fill="#dae6f1" data-original="#dae6f1"></path></g></g><g><g><path d="m205.168 155.197-18.899-5.064-13.836 13.835 5.064 18.899 18.9 5.065 13.835-13.836z" fill="#818182" data-original="#818182"></path></g></g><g><g><path d="m230.481 129.884c-4.18-4.18-8.866-7.543-13.857-10.107l-2.68 2.68c-.478.478-.665 1.176-.49 1.829l4.498 16.788c.175.653.686 1.164 1.339 1.339l16.788 4.498c.653.175 1.351-.012 1.829-.49l2.68-2.68c-2.564-4.991-5.927-9.677-10.107-13.857z" fill="#818182" data-original="#818182"></path></g></g><g><g><path d="m164.713 196.991c-.175-.653-.686-1.164-1.339-1.339l-16.787-4.498c-.653-.175-1.351.012-1.829.49l-1.955 1.955c5.772 4.892 11.609 9.107 17.126 12.338 3.47 2.032 6.363 4.055 8.796 6.026z" fill="#818182" data-original="#818182"></path></g></g><g><g><path d="m195.038 117.391-.979-3.655c-11.352-.556-22.838 2.372-32.735 8.769l.98 3.657c.175.653.686 1.164 1.339 1.339l16.787 4.499c.653.175 1.351-.012 1.829-.49l12.289-12.289c.478-.479.665-1.176.49-1.83z" fill="#818182" data-original="#818182"></path></g></g><g><g><path d="m220.362 211.902c-.175-.653-.685-1.164-1.339-1.339l-16.787-4.498c-.654-.175-1.351.012-1.829.49l-12.289 12.289c-.478.478-.665 1.175-.49 1.829l.979 3.655c11.352.556 22.838-2.372 32.735-8.769z" fill="#818182" data-original="#818182"></path></g></g><g><g><path d="m154.3 158.129-4.498-16.788c-.175-.653-.685-1.164-1.339-1.339l-3.657-.98c-6.397 9.897-9.325 21.383-8.769 32.735l3.655.979c.653.175 1.351-.012 1.829-.49l12.289-12.289c.478-.477.665-1.174.49-1.828z" fill="#818182" data-original="#818182"></path></g></g><g><g><path d="m246.629 166.306-3.655-.979c-.653-.175-1.351.012-1.829.49l-12.289 12.289c-.478.478-.665 1.176-.49 1.829l4.498 16.788c.175.653.686 1.164 1.339 1.339l3.657.98c6.396-9.897 9.325-21.384 8.769-32.736z" fill="#818182" data-original="#818182"></path></g></g><g><g><path d="m27.705 114.192c-4.498-.838-8.043-4.31-8.898-8.716-.043-.221-.352-.221-.395 0-.855 4.406-4.4 7.879-8.898 8.716-.226.042-.226.345 0 .387 4.498.838 8.043 4.31 8.898 8.717.043.221.352.221.395 0 .855-4.406 4.4-7.879 8.898-8.717.226-.042.226-.345 0-.387z" fill="#f5c84c" data-original="#f5c84c"></path></g></g><g><g><path d="m210.866 240.335c-3.557-.662-6.361-3.409-7.037-6.894-.034-.175-.278-.175-.312 0-.676 3.485-3.48 6.232-7.037 6.894-.179.033-.179.273 0 .306 3.557.663 6.361 3.409 7.037 6.894.034.175.278.175.312 0 .676-3.485 3.48-6.232 7.037-6.894.179-.033.179-.273 0-.306z" fill="#87d147" data-original="#87d147"></path></g></g><g><g><path d="m154.441 23.237h-2.33v-2.33c0-1.744-1.413-3.157-3.157-3.157s-3.157 1.413-3.157 3.157v2.33h-2.329c-1.744 0-3.157 1.413-3.157 3.157s1.413 3.157 3.157 3.157h2.329v2.33c0 1.744 1.413 3.157 3.157 3.157s3.157-1.413 3.157-3.157v-2.33h2.33c1.744 0 3.157-1.413 3.157-3.157s-1.413-3.157-3.157-3.157z" fill="#70d6f9" data-original="#70d6f9"></path></g></g><g><g><path d="m34.662 88.25c-1.865 0-3.377 1.512-3.377 3.377s1.512 3.377 3.377 3.377 3.377-1.512 3.377-3.377-1.512-3.377-3.377-3.377z" fill="#70d6f9" data-original="#70d6f9"></path></g></g><g><g><circle cx="135.662" cy="47.627" fill="#fc657e" r="3.377" data-original="#fc657e"></circle></g></g><g><g><g><path d="m127.711 5.159c.008-.039.013-.066.018-.09.003-.014.003-.017.006-.032-.006.031-.016.077-.024.122zm121.426 161.39c-2.341-55.785-75.745-76.38-106.431-28.883-8.08 12.501-11.042 27.493-8.142 42.492-1.091-.641-1.986-.212-2.483-.187-1.105-1.156-2.197-2.335-3.275-3.531.457-.54.691-1.261.568-2.014-.225-1.362-1.509-2.287-2.872-2.062l-1.093.18c-.831-.985-1.654-1.977-2.458-2.981.642-.549.996-1.405.849-2.3-.224-1.362-1.505-2.283-2.872-2.062l-1.189.195c-.763-1.03-1.503-2.069-2.23-3.113.559-.55.854-1.352.717-2.185-.224-1.362-1.511-2.284-2.872-2.062l-.61.1c-.613-.967-1.095-1.746-1.66-2.692 1.055-.431 1.714-1.542 1.522-2.715-.224-1.362-1.504-2.283-2.872-2.062l-1.21.199c-1.506-2.86-2.866-5.713-4.066-8.91-.41-1.092-1.036-2.048-1.791-2.869 29.97-136.21 12.641-59.88 28.05-133.466.58-2.91-1.649-5.623-4.613-5.623h-59.703c-2.377 0-4.385 1.779-4.67 4.139-5.057 41.11-5.82 51.334-9.731 71.053l-8.453 42.462c-2.958.55-5.6 2.186-7.403 4.65-9.687 13.235-16.041 17.196-19.664 21.252-.291.515-7.798 7.517-11.305 24.829-.51 2.516-.472 5.018.012 7.395-1.699 8.983 2.526 17.59 10.265 21.06l-1.028 6.623c-.385 2.48 1.042 4.92 3.391 5.802l3.928 1.474c2.365.889 5.039-.029 6.371-2.138l3.555-5.618 4.352 1.633-1.02 6.57c-.385 2.48 1.042 4.92 3.391 5.802l3.928 1.474c2.365.889 5.039-.029 6.371-2.138l3.555-5.618 50.442 18.934-1.02 6.571c-.384 2.479 1.042 4.919 3.391 5.802l3.929 1.474c2.358.884 5.033-.025 6.37-2.139l3.555-5.618 7.626 2.863-.563 6.299c-.224 2.5 1.358 4.843 3.761 5.571l4.016 1.217c2.396.725 5.015-.34 6.219-2.548l3.019-5.536c2.21.467 4.616.894 7.127 1.215l1.499 6.982c.525 2.443 2.711 4.207 5.206 4.207h.034l4.195-.027c2.511-.016 4.691-1.813 5.187-4.274l1.437-7.137c2.369-.474 4.66-1.163 6.789-2.148 3.734-1.727 5.956-5.755 5.551-9.833 1.032-2.018 1.26-4.259.692-6.352 36.295 5.525 67.979-23.616 66.429-59.678zm-9.283-18.539c2.051 4.731 3.398 9.76 3.989 14.961l-.222-.059c-1.509-.403-3.137.031-4.243 1.138l-12.042 12.041-15.062-4.036-4.317-16.112 11.025-11.025 16.45 4.407c2.701.727 4.322-1.246 4.422-1.315zm-22.774-25.154c8.613 4.805 15.717 11.982 20.428 20.428l-1.12 1.121-16.111-4.317-4.316-16.111zm-19.686-6.333c5.201.59 10.229 1.937 14.96 3.988l-.178.178c-1.106 1.106-1.542 2.731-1.138 4.243v.001l4.408 16.45-11.025 11.025-16.112-4.317-4.035-15.062 12.04-12.041c1.978-1.975 1.081-4.365 1.08-4.465zm10.051 56.826-11.795 11.794-16.111-4.316-4.316-16.111 11.794-11.794 16.111 4.316zm-15.317-57.162.405 1.512-11.793 11.794-16.111-4.317-.41-1.53c8.278-4.961 17.815-7.608 27.909-7.459zm-32.303 10.385c.056.1.458 2.617 3.17 3.344l16.449 4.407 4.036 15.063-11.793 11.793-15.063-4.036-4.407-16.448c-.722-2.702-3.223-3.109-3.323-3.166 3.165-4.279 6.846-7.912 10.931-10.957zm3.859 66.574-16.449-4.407c-2.703-.724-4.311 1.245-4.411 1.304-.116-.268-.228-.537-.339-.806.101-.882-.229-1.634-.841-2.165-1.414-3.908-2.347-7.927-2.804-11.976.115.024.614.204 1.336.204 1.151 0 2.278-.453 3.112-1.286l12.041-12.042 15.063 4.036 4.316 16.111zm.805 12.667c-3.566-2.316-8.464-4.724-17.339-11.92l15.239 4.083zm-18.511-63.888 1.5.402 4.316 16.111-11.793 11.794-1.483-.397c-.126-9.756 2.432-19.453 7.46-27.91zm-40.668 9.8-3.584.588c-1.362.224-2.285 1.509-2.062 2.872.221 1.349 1.494 2.286 2.872 2.062l5.272-.866c.504.882 1.025 1.762 1.56 2.64l-4.022.66c-1.362.224-2.285 1.509-2.062 2.872.221 1.349 1.494 2.286 2.872 2.062l6.149-1.01c.61.906 1.235 1.807 1.873 2.705l-3.259.535c-1.362.224-2.285 1.509-2.062 2.872.221 1.349 1.494 2.286 2.872 2.062l5.796-.952c.877 1.137 2.021 2.566 2.102 2.667l-3.134.515c-1.362.224-2.285 1.509-2.062 2.872.221 1.349 1.494 2.286 2.872 2.062l6.068-.996c.482.552 1.655 1.874 2.699 3.013l-3.18.522c-1.362.224-2.285 1.509-2.062 2.872.221 1.349 1.494 2.286 2.872 2.062l6.534-1.073c.427.432 1.593 1.598 2.315 2.303l-2.953.485c-1.362.224-2.285 1.509-2.062 2.872.221 1.349 1.494 2.286 2.872 2.062l6.724-1.104c1.845 1.669 4.611 4.05 6.546 5.615-6.3 3.232-11.445.55-17.226-3.261l-.011-.007c-16.954-15.855-27.629-34.917-32.58-45.118l10.241.045c.391.828.793 1.659 1.21 2.49zm-36.648-146.725h59.08c0 .002-.001.004-.001.006-.002.009-.006.031-.013.063-.015.074-.028.139-.034.172.001-.005.002-.01.003-.015-.002.009-.004.02-.006.029-.003.016-.005.026-.006.03 0-.002.001-.006.002-.01-.332 1.653-2.449 12.205-13.504 67.3-26.131 2.385-43.624-6.577-52.386-12.84 1.783-11.495 1.845-13.886 6.865-54.735zm-7.741 60.202c9.714 6.414 27.153 14.386 52.136 12.493l-12.927 58.748c-1.355-.302-2.308-.18-3.825-.17-8.706.057-26.438-1.488-38.422-13.573-1.53-1.543-3.278-3.926-7.268-4.901.028-.137 9.126-45.624 10.306-52.597zm-18.743 60.054c1.228-1.678 3.125-2.701 5.206-2.807 3.332-.174 4.826 1.628 6.918 3.742 11.127 11.244 28.034 15.529 43.829 15.048 1.721-.048 3.045.896 3.846 2.983l-32.039-.141c-6.261-.027-12.191-2.436-16.697-6.783l-11.662-11.245c.199-.267.401-.526.599-.797zm-3.673 4.779 11.265 10.863c5.437 5.244 12.592 8.15 20.146 8.184l18.4.081c3.819 8.206 12.415 24.615 26.24 40.106-8.074-1.947-17.628-1.921-27.549.2-12.907-17.898-36.593-39.491-53.472-53.633 1.569-1.714 3.502-3.978 4.97-5.801zm-8.435 9.417c14.395 12.042 61.565 53.275 61.65 72.015l-33.151-12.444c-4.06-17.62-21.096-41.972-32.002-56.246.854-.77 2.616-2.441 3.503-3.325zm-17.997 29.926c1.683-8.315 4.94-17.07 10.802-23.197 9.978 13.088 24.952 34.447 29.943 50.683l-32.126-12.059c-6.231-2.338-9.947-8.873-8.619-15.427zm13.812 36.551c-.082.128-.245.183-.388.129l-3.929-1.474c-.143-.054-.229-.203-.206-.354l.86-5.542 6.662 2.501zm20.576 7.723c-.082.128-.244.184-.388.129l-3.929-1.474c-.143-.054-.229-.203-.206-.354l.86-5.542 6.662 2.501zm66.668 25.023c-.083.13-.251.186-.389.131l-3.928-1.474c-.144-.054-.23-.204-.207-.354l.86-5.542 6.662 2.501zm24.447 8.064c-.072.135-.231.201-.38.155l-4.015-1.216c-.146-.044-.243-.188-.229-.34l.44-4.932c1.104.385 3.432 1.16 6.553 1.989zm25.755 3.973c-.03.149-.163.259-.315.26l-4.196.027h-.002c-.152 0-.285-.108-.317-.257l-1.17-5.449c2.654.147 4.796.126 7.098-.033zm-8.813-10.673c-12.549-1.32-22.344-5.427-22.444-5.458 0 0-.002 0-.004-.001-27.127-10.183-57.761-21.682-98.549-36.992.195.073-2.677-1.005-13.305-4.994-3.14-1.179-5.556-3.519-6.976-6.475 1.641 1.412 3.554 2.564 5.696 3.368 12.092 4.539 103.51 38.854 115.763 43.453 11.114 4.49 28.254 8.103 39.899 4.816-5.287 2.841-14.117 2.904-20.08 2.283zm21.071-7.9c-14.52 5.943-38.769-3.734-39.072-3.856l-39.895-14.975c.832-6.377-3.117-13.955-6.565-19.362 13.582-2.482 26.466-.668 34.251 4.952 7.549 5.45 15.977 7.136 23.599 1.982 11.931 8.97 25.182 14.114 29.854 26.301.771 2.013-.323 4.202-2.172 4.958zm9.679-10.612c-1.738-.204-3.477-.468-5.213-.847-2.375-3.815-5.602-7.221-9.126-10.152l-3.71-13.847 11.025-11.025 16.112 4.317 4.036 15.061-12.041 12.041c-1.972 1.969-1.084 4.352-1.083 4.452zm5.273.363-.408-1.525 11.793-11.794 16.112 4.317.409 1.529c-8.427 5.052-17.988 7.623-27.906 7.473zm32.294-10.418c-.057-.101-.463-2.601-3.164-3.324l-16.449-4.407-4.037-15.063 11.794-11.793 15.062 4.036 4.407 16.448c.725 2.712 3.243 3.115 3.344 3.172-3.261 4.374-6.875 7.886-10.957 10.931zm13.882-15.325-1.529-.41-4.316-16.111 11.794-11.794 1.513.405c.137 10.056-2.446 19.542-7.462 27.91z" fill="#000000" data-original="#000000"></path></g></g></g></g></g></g></svg>