<svg xmlns="http://www.w3.org/2000/svg" version="1.1" xmlns:xlink="http://www.w3.org/1999/xlink" xmlns:svgjs="http://svgjs.com/svgjs" width="512" height="512" x="0" y="0" viewBox="0 0 511.978 511.978" style="enable-background:new 0 0 512 512" xml:space="preserve" class=""><g><g xmlns="http://www.w3.org/2000/svg"><g><g fill="#dd636e"><path d="m68.762 209.326.02 2.231c.069 7.867-5.965 14.444-13.809 15.052l-24.127 1.868c-8.642.669-16.043-6.121-16.119-14.789l-.049-5.543c-.076-8.668 7.205-15.587 15.857-15.07l24.156 1.444c7.853.469 14.002 6.939 14.071 14.807z" fill="#dd636e" data-original="#dd636e"></path><path d="m78.855 259.743 1.132 1.922c3.993 6.779 2.056 15.492-4.433 19.94l-19.961 13.682c-7.15 4.901-16.954 2.721-21.354-4.748l-2.814-4.776c-4.4-7.468-1.554-17.101 6.198-20.979l21.642-10.828c7.037-3.52 15.597-.991 19.59 5.787z" fill="#dd636e" data-original="#dd636e"></path><path d="m116.77 294.216 1.942 1.098c6.848 3.874 9.527 12.388 6.131 19.485l-10.446 21.829c-3.742 7.819-13.323 10.833-20.867 6.566l-4.824-2.729c-7.544-4.268-9.896-14.033-5.122-21.267l13.329-20.198c4.332-6.568 13.009-8.658 19.857-4.784z" fill="#dd636e" data-original="#dd636e"></path></g><g><path d="m447.801 327.422c67.166-67.166 65.977-177.198-3.566-242.846-65.225-61.574-168.165-61.244-233.015.726-49.871 47.656-64.069 118.3-42.604 179.051 11.959 33.847 3.022 71.574-22.361 96.957l-47.508 47.508c-7.666 7.666-8.234 20.156-.845 28.089 7.757 8.329 20.802 8.503 28.781.524l47.75-47.75c25.392-25.392 63.143-34.453 96.998-22.478 59.611 21.087 128.759 7.83 176.37-39.781zm-211.107-28.275c-50.407-50.407-50.407-132.425 0-182.832s132.425-50.407 182.832 0 50.407 132.425 0 182.832-132.425 50.407-182.832 0z" fill="#e49542" data-original="#e49542"></path><g fill="#e28424"><path d="m111.441 421.512 47.508-47.508c25.383-25.383 34.32-63.111 22.361-96.957-21.465-60.752-7.267-131.395 42.604-179.051 63.868-61.032 164.682-62.274 230.027-3.478-3.074-3.412-6.305-6.732-9.706-9.942-65.225-61.574-168.165-61.244-233.015.726-49.871 47.656-64.068 118.3-42.604 179.051 11.959 33.847 3.022 71.574-22.361 96.957l-47.508 47.508c-7.666 7.666-8.234 20.156-.845 28.09 2.405 2.582 5.32 4.377 8.434 5.392-2.274-7.075-.476-15.207 5.105-20.788z" fill="#e28424" data-original="#e28424"></path><path d="m243.265 305.269c1.953 2.242 3.989 4.437 6.123 6.571 50.407 50.407 132.425 50.407 182.832 0s50.407-132.425 0-182.832c-2.134-2.134-4.329-4.17-6.571-6.123 44.186 50.728 42.15 127.988-6.123 176.261s-125.533 50.31-176.261 6.123z" fill="#e28424" data-original="#e28424"></path></g><path d="m56.524 498.91-19.593-19.593c-7.442-7.442-7.442-19.508 0-26.95l62.845-62.845c7.442-7.442 19.508-7.442 26.95 0l19.593 19.593c7.442 7.442 7.442 19.508 0 26.95l-62.845 62.845c-7.442 7.442-19.508 7.442-26.95 0z" fill="#ffd064" data-original="#ffd064"></path><path d="m52.444 494.832-15.516-15.516c-7.436-7.436-7.436-19.51.007-26.953l62.841-62.841c7.443-7.443 19.51-7.436 26.946 0l15.516 15.516c-7.443-7.443-19.503-7.443-26.946 0l-62.841 62.841c-7.443 7.443-7.451 19.51-.007 26.953z" fill="#ffc250" data-original="#ffc250"></path></g><g><path d="m196.837 124.312-33.571-97.242c-6.683-19.358-31.069-26.059-46.269-12.335-.258.233-.512.47-.763.713-12.325 11.92-12.449 31.577-.373 43.654-11.953-11.953-31.333-11.953-43.287 0s-11.953 31.333 0 43.287c-12.077-12.078-31.734-11.953-43.654.372-.243.251-.481.506-.713.763-13.724 15.2-7.023 39.586 12.335 46.269l97.242 33.571 50.1-8.952z" fill="#ffd064" data-original="#ffd064"></path><path d="m64.324 126.011c-12.961-7.01-21.939-20.972-21.756-31.428-5.019 1.42-9.75 4.147-13.649 8.177-.244.253-.479.505-.714.767-13.719 15.2-7.018 39.588 12.338 46.266l97.242 33.576 50.1-8.957-38.655-2.488z" fill="#ffc250" data-original="#ffc250"></path><path d="m208.458 194.986c-16.307 16.307-42.746 16.307-59.053 0l-11.622-11.622 59.053-59.053 11.622 11.622c16.307 16.308 16.307 42.746 0 59.053z" fill="#ddeafb" data-original="#ddeafb"></path><path d="m215.003 186.514c-15.993 9.353-36.869 7.175-50.583-6.539l-11.623-11.623-15.012 15.012 11.623 11.623c16.306 16.306 42.746 16.302 59.052-.004 2.592-2.592 4.774-5.445 6.543-8.469z" fill="#cbe2ff" data-original="#cbe2ff"></path></g></g><g><path d="m31.424 235.954 24.127-1.868c11.728-.908 20.833-10.833 20.729-22.595l-.02-2.23c-.104-11.763-9.382-21.526-21.124-22.228l-24.157-1.444c-6.188-.369-12.32 1.868-16.816 6.141-4.496 4.272-7.042 10.28-6.988 16.481l.049 5.543c.054 6.202 2.707 12.163 7.276 16.356 4.147 3.805 9.608 5.911 15.205 5.911.573-.001 1.147-.023 1.719-.067zm-6.78-16.897c-1.541-1.414-2.399-3.344-2.418-5.435l-.049-5.543c-.018-2.091.807-4.036 2.322-5.476 1.404-1.334 3.209-2.055 5.127-2.055.153 0 .307.005.461.014l24.157 1.444c3.901.233 6.984 3.478 7.019 7.386l.02 2.23c.034 3.909-2.992 7.207-6.889 7.508l-24.127 1.868c-2.085.159-4.082-.528-5.623-1.941z" fill="#000000" data-original="#000000"></path><path d="m27.778 294.346c3.147 5.344 8.425 9.18 14.479 10.526 1.603.356 3.229.532 4.851.532 4.504 0 8.964-1.353 12.726-3.931l19.961-13.682c9.702-6.65 12.625-19.798 6.655-29.933l-1.132-1.922c-5.971-10.134-18.887-13.95-29.407-8.688l-21.642 10.828c-5.546 2.775-9.735 7.778-11.493 13.726-1.757 5.948-.959 12.424 2.189 17.767zm9.383-18.294c.593-2.005 1.949-3.625 3.819-4.561l21.642-10.828c1.062-.532 2.197-.784 3.32-.784 2.57 0 5.07 1.327 6.452 3.671l1.132 1.921c1.984 3.368 1.013 7.737-2.211 9.946l-19.962 13.683c-1.725 1.183-3.799 1.583-5.841 1.13-2.041-.454-3.75-1.696-4.811-3.498l-2.813-4.776c-1.061-1.802-1.32-3.898-.727-5.904z" fill="#000000" data-original="#000000"></path><path d="m74.233 332.699c1.452 6.03 5.381 11.239 10.779 14.293l4.824 2.729c3.399 1.923 7.23 2.906 11.079 2.906 2.264 0 4.533-.34 6.725-1.03 5.916-1.861 10.845-6.138 13.522-11.732l10.446-21.829c5.077-10.609 1.035-23.458-9.204-29.25l-1.941-1.098c-10.239-5.792-23.333-2.638-29.811 7.18l-13.329 20.198c-3.416 5.176-4.542 11.603-3.09 17.633zm15.61-9.371 13.329-20.198c1.424-2.159 3.812-3.348 6.249-3.348 1.246 0 2.506.311 3.657.962h.001l1.94 1.098c3.402 1.925 4.746 6.194 3.059 9.72l-10.446 21.829c-.903 1.886-2.499 3.271-4.494 3.898-1.994.627-4.096.406-5.916-.624l-4.824-2.729c-1.82-1.03-3.092-2.717-3.582-4.75-.49-2.032-.125-4.113 1.027-5.858z" fill="#000000" data-original="#000000"></path><path d="m504.783 205.18c-.691-48.216-20.365-92.986-55.396-126.062-32.951-31.102-76.19-48.185-121.824-48.01-45.605.142-88.764 17.459-121.526 48.762-4.276 4.087-8.337 8.39-12.167 12.858l-23.512-68.105c-4.017-11.625-13.544-20.4-25.485-23.474-11.702-3.012-24.001-.015-32.899 8.016-.021.019-.079.072-.1.092-.304.281-.596.553-.889.844-7.382 7.158-11.496 16.754-11.585 27.028-.017 1.999.118 3.975.4 5.914-1.832-.267-3.696-.403-5.581-.403-10.179 0-19.747 3.963-26.941 11.157-7.202 7.196-11.168 16.766-11.168 26.947 0 1.885.136 3.749.403 5.581-1.938-.282-3.907-.419-5.909-.401-10.297.087-19.913 4.216-27.092 11.642-.278.289-.556.59-.868.929-8.037 8.897-11.036 21.198-8.023 32.905 3.074 11.944 11.848 21.469 23.471 25.482l27.87 9.62c3.914 1.352 8.185-.727 9.537-4.642s-.727-8.186-4.642-9.537l-27.87-9.62c-6.85-2.365-12.023-7.988-13.838-15.042-1.781-6.919-.094-13.885 4.581-19.061.194-.211.396-.43.583-.625 4.345-4.495 10.176-6.999 16.419-7.052 6.236-.037 12.125 2.352 16.545 6.772 2.929 2.929 7.678 2.929 10.606 0 2.929-2.929 2.929-7.677 0-10.606-4.368-4.368-6.773-10.173-6.773-16.345 0-6.171 2.404-11.973 6.773-16.338 4.363-4.363 10.165-6.766 16.337-6.766s11.974 2.403 16.337 6.766c2.928 2.929 7.676 2.929 10.605.001s2.931-7.676.003-10.606c-4.417-4.42-6.82-10.295-6.766-16.542.054-6.24 2.559-12.07 7.053-16.414.03-.03.061-.059.09-.089.167-.167.336-.32.482-.456 5.228-4.719 12.193-6.405 19.109-4.624 7.053 1.815 12.678 6.991 15.046 13.844l32.039 92.806-52.418 52.417-36.885-12.73c-3.915-1.349-8.185.728-9.537 4.643-1.351 3.916.728 8.185 4.643 9.537l39.676 13.693 10.405 10.406c2.288 2.288 4.752 4.295 7.341 6.038-.175 20.692 3.217 41.031 10.102 60.522 10.873 30.774 2.787 65.771-20.602 89.158l-21.238 21.238c-8.752-2.179-18.404.143-25.234 6.972l-62.845 62.845c-10.354 10.354-10.354 27.202 0 37.557l19.593 19.593c5.177 5.177 11.978 7.766 18.778 7.766 6.801 0 13.601-2.588 18.778-7.766l62.845-62.845c6.83-6.83 9.152-16.484 6.972-25.237l21.137-21.146c23.45-23.45 58.46-31.58 89.195-20.713 31.181 11.032 64.786 13.124 97.182 6.047 4.047-.884 6.61-4.881 5.727-8.928-.884-4.046-4.882-6.61-8.928-5.727-29.666 6.479-60.433 4.566-88.979-5.534-36.151-12.784-77.29-3.266-104.805 24.249l-18.463 18.471-17.672-17.672 18.563-18.563c27.451-27.45 36.925-68.571 24.139-104.762-5.563-15.746-8.629-32.099-9.164-48.747 4.063 1.051 8.233 1.588 12.406 1.588 4.231 0 8.459-.553 12.577-1.634 1.351 34.254 15.552 67.061 39.886 91.396 26.663 26.663 61.688 39.994 96.714 39.994 35.027 0 70.055-13.332 96.723-39.995 53.328-53.339 53.328-140.118-.001-193.447-53.336-53.325-140.111-53.325-193.436.001-6.285 6.285-11.909 13.146-16.832 20.465-.268-.281-.526-.567-.801-.843l-10.397-10.397-3.734-10.815c5.055-6.607 10.681-12.888 16.768-18.705 29.97-28.635 69.465-44.476 111.21-44.607 41.731-.154 81.338 15.467 111.48 43.917 32.058 30.269 50.062 71.242 50.695 115.37.633 44.148-16.158 85.602-47.28 116.724-15.264 15.264-33.051 27.114-52.867 35.222-3.833 1.568-5.669 5.948-4.101 9.782 1.188 2.904 3.989 4.662 6.944 4.662.946 0 1.908-.18 2.837-.561 21.669-8.866 41.113-21.818 57.792-38.498 34.017-34.015 52.368-79.312 51.676-127.547zm-360.382 217.409c0 3.087-1.202 5.989-3.385 8.172l-62.845 62.845c-4.505 4.505-11.837 4.506-16.343 0l-19.593-19.593c-4.506-4.506-4.506-11.838 0-16.344l62.845-62.845c2.183-2.183 5.085-3.385 8.172-3.385 3.086 0 5.989 1.202 8.171 3.385l19.593 19.593c2.183 2.183 3.385 5.086 3.385 8.172zm10.308-232.906-6.318-6.318 48.446-48.446 6.318 6.318c13.356 13.357 13.356 35.089 0 48.446-13.357 13.356-35.089 13.356-48.446 0zm59.053 10.606c.811-.811 1.574-1.65 2.317-2.502l9.998 9.998-18.275 18.275c-.991-6.493-1.464-13.089-1.39-19.727 2.592-1.743 5.059-3.753 7.35-6.044zm-2.03 43.055 24.951-24.951 35.099 35.099-34.897 34.897c-11.562-13.098-20.101-28.503-25.153-45.045zm116.364-116.364 35.1 35.098-35.101 35.101-35.099-35.099zm-45.706 24.493-34.958-34.958c13.385-11.854 28.773-20.253 45-25.197l25.057 25.055zm56.312-35.1 25.062-25.062c16.23 4.94 31.621 13.336 45.01 25.187l-34.972 34.972zm-10.599 172.227-35.109-35.109 35.1-35.1 35.109 35.109zm45.707-24.494 34.908 34.908c-13.399 11.845-28.8 20.233-45.037 25.163l-24.971-24.971zm-56.313 35.1-24.968 24.968c-16.24-4.932-31.642-13.325-45.041-25.177l34.9-34.9zm21.204-91.422 35.101-35.101 35.11 35.108-35.102 35.102zm-21.213 0-35.1 35.1-35.099-35.099 35.1-35.1zm-7.654 120.298 18.269-18.269 18.271 18.271c-12.106 1.82-24.434 1.82-36.54-.002zm109.494-39.67-34.912-34.912 35.103-35.103 25.006 25.005c-4.943 16.23-13.342 31.621-25.197 45.01zm29.117-62.304-18.319-18.318 18.336-18.336c1.827 12.144 1.821 24.512-.017 36.654zm-3.891-53.959-25.035 25.035-35.11-35.108 34.97-34.97c11.851 13.4 20.243 28.802 25.175 45.043zm-98.085-84.755-18.373 18.373-18.37-18.369c12.172-1.844 24.57-1.845 36.743-.004zm-109.637 39.734 34.951 34.951-35.1 35.1-12.438-12.438c5.381-12.691 5.212-27.191-.521-39.764 3.804-6.322 8.196-12.292 13.108-17.849z" fill="#000000" data-original="#000000"></path></g></g></g></svg>